<?xml version="1.0" encoding="UTF-8"?>
<svg version="1.1" xmlns="http://www.w3.org/2000/svg" width="1630" height="481">
<path d="M0 0 C0 3.79676808 -0.9647453 4.38697275 -3.4375 7.1875 C-23.01464062 31.08058873 -31.23893524 63.52782707 -35.62548828 93.44677734 C-35.85726956 95.02693944 -36.09854598 96.60577991 -36.35498047 98.18212891 C-43.26734104 140.77582772 -36.82239643 186.20116795 -12 222 C-9.46784863 225.46405838 -6.8035057 228.75325229 -4 232 C-3.32710938 232.81726563 -2.65421875 233.63453125 -1.9609375 234.4765625 C18.17657925 258.12899127 49.27979358 269.87223671 79.58911133 272.83227539 C107.63451468 274.78338345 134.43417045 270.96816887 161 262 C162.33490479 261.55092285 162.33490479 261.55092285 163.69677734 261.09277344 C177.07823872 256.49712003 190.01271933 250.87953952 202.98580933 245.25976562 C226.79125159 234.9488135 250.42845634 225.04464732 276 220 C277.18207031 219.75636719 278.36414063 219.51273438 279.58203125 219.26171875 C305.1143066 214.63379708 331.62064228 220.29357459 353 235 C377.28889806 252.85029111 392.51354306 278.42516158 397.3125 308.125 C400.85859661 338.09633573 392.37821774 366.82047674 374.125 390.75 C364.71554174 402.66031697 353.98338204 413.03565106 342.83837891 423.296875 C341.39005876 424.63863879 339.96252345 426.00283901 338.54296875 427.375 C295.24433037 468.36779373 229.30403396 478.40894885 172.30151367 477.0736084 C163.41657869 476.78944505 154.72325589 475.66530771 146 474 C144.47656982 473.70996094 144.47656982 473.70996094 142.92236328 473.4140625 C118.6055957 468.60488643 95.2956766 460.79861697 73 450 C71.63952401 449.35894806 70.27885399 448.71830769 68.91796875 448.078125 C45.57543121 436.92724969 24.29550728 422.18101559 5 405 C4.20867676 404.30124756 4.20867676 404.30124756 3.40136719 403.58837891 C-21.68671808 381.3371887 -47.13149384 351.14785909 -56 318 C-55.62109375 315.640625 -55.62109375 315.640625 -55 314 C-50.8850985 314.50622456 -49.06117953 315.47369484 -46.29296875 318.53515625 C-45.62330078 319.26283203 -44.95363281 319.99050781 -44.26367188 320.74023438 C-43.57853516 321.50658203 -42.89339844 322.27292969 -42.1875 323.0625 C-40.82811886 324.55456715 -39.46744322 326.04545595 -38.10546875 327.53515625 C-37.43040283 328.27556152 -36.75533691 329.0159668 -36.05981445 329.77880859 C-31.29662512 334.91517182 -26.41321124 339.86943101 -20.9375 344.25 C-20.00035156 345.00023437 -19.06320313 345.75046875 -18.09765625 346.5234375 C-17.07542969 347.34070313 -16.05320312 348.15796875 -15 349 C-13.85158071 349.94896926 -12.70449954 350.89955964 -11.55859375 351.8515625 C38.29967937 392.98866298 102.35537511 412.09184462 166.57202148 406.17602539 C206.36424342 401.95619643 252.46977576 387.50093372 284 362 C284.88429688 361.31421875 285.76859375 360.6284375 286.6796875 359.921875 C293.64189407 354.17857107 298.83438808 347.49412355 300.46484375 338.41015625 C300.65499977 333.83880549 299.9865079 330.60440609 297 327 C291.41247396 321.98555356 286.47078673 319.9662972 279 320 C264.25793933 321.60472359 251.58327571 331.58875214 239.41967773 339.33666992 C188.28577627 371.77093597 131.23121809 385.12804696 71.34277344 372.04980469 C52.89405107 367.7388219 35.65831346 360.9688324 19 352 C17.25009766 351.07960938 17.25009766 351.07960938 15.46484375 350.140625 C2.94399781 343.30850613 -8.40975516 334.72398852 -18.83984375 325.0078125 C-20.86538639 323.12512006 -22.94704391 321.34262939 -25.0625 319.5625 C-57.94849276 290.68059019 -77.24746484 245.86660182 -81.75 203 C-81.8640362 201.00151553 -81.94248884 199.00090902 -82 197 C-82.02578125 196.26475098 -82.0515625 195.52950195 -82.078125 194.77197266 C-83.97720789 133.94197371 -58.86245519 76.07156468 -23 28 C-22.39357666 27.18523193 -22.39357666 27.18523193 -21.77490234 26.35400391 C-14.99398455 17.28859142 -8.01442145 8.01442145 0 0 Z " fill="#FBB519" transform="translate(82,4)"/>
<path d="M0 0 C3.58440006 2.75850143 6.79377326 5.81511254 10 9 C10.64066406 9.61488281 11.28132813 10.22976562 11.94140625 10.86328125 C15.4708158 14.29794155 18.7210713 17.92616853 21.9375 21.65234375 C26.01112347 26.28917652 30.2402617 30.78680923 34.43701172 35.31201172 C35.92095404 36.91463234 37.40084559 38.52086155 38.87890625 40.12890625 C41.91092225 43.42703418 44.95351966 46.71523238 48 50 C48.58201172 50.6285791 49.16402344 51.2571582 49.76367188 51.90478516 C57.85758566 60.63036681 66.09694119 69.19628419 74.5 77.625 C75.32435547 78.45394775 76.14871094 79.28289551 76.99804688 80.13696289 C81.2932676 84.42129751 85.66548665 88.54441624 90.26660156 92.49853516 C92.45081526 94.39049491 94.5292824 96.38597348 96.625 98.375 C110.74231861 111.06545333 128.71576934 120.78250868 148 121 C174.88453788 119.17092237 198.29164133 104.28146421 219 88 C219.82628906 87.35546875 220.65257812 86.7109375 221.50390625 86.046875 C231.20842174 78.38295587 240.60825576 70.34379388 249.7578125 62.02734375 C251.71208424 60.26032801 253.69059737 58.53086471 255.6875 56.8125 C259.00528513 53.93215104 262.20410689 50.93862786 265.39916992 47.92407227 C288.35001 26.30042769 288.35001 26.30042769 304.04296875 26.45874023 C312.07897515 26.83116364 317.98552386 29.4985391 323.4375 35.375 C329.57688426 43.549251 329.91644079 50.88718241 329 61 C326.26533453 73.78000328 315.19559451 85.30944363 307 95 C306.18789063 95.99773437 305.37578125 96.99546875 304.5390625 98.0234375 C298.04043844 105.91880573 290.97552644 113.21287459 283.75 120.4375 C283.27841461 120.90999176 282.80682922 121.38248352 282.32095337 121.86929321 C276.72384225 127.46518749 271.04439162 132.88989773 265 138 C264.36578125 138.54100342 263.7315625 139.08200684 263.078125 139.6394043 C237.44483908 161.37686827 209.38061675 179.45264682 179.08251953 193.99804688 C177.68166722 194.67203256 176.28423229 195.35316287 174.89013672 196.04101562 C124.02612465 221.02203883 61.10643574 233.74917418 6.15161133 215.8815918 C-1.91258448 213.12594698 -9.39956638 210.12990915 -15.125 203.5625 C-16.39323817 199.84837394 -16.08972107 197.78197314 -15 194 C-12.19522729 189.05040111 -8.25677139 185.2296491 -4.1875 181.3125 C9.07992865 168.24428199 18.69834769 150.9697277 19.375 132.1875 C18.88718223 111.38872406 3.40531356 94.26301147 -8.40185547 78.18652344 C-12.50556708 72.57197391 -16.5087755 66.88634601 -20.48095703 61.17822266 C-21.52409956 59.68241462 -22.5722278 58.19007493 -23.62451172 56.70068359 C-40.18644394 33.20084298 -40.18644394 33.20084298 -38 19 C-35.88658516 10.73846928 -32.93126917 4.2029763 -25.4375 -0.3125 C-17.30183467 -4.30637207 -8.07397826 -4.3015985 0 0 Z " fill="#0085F5" transform="translate(123,18)"/>
<path d="M0 0 C12.1283661 9.61053704 23.12893351 22.77602561 25.19335938 38.70800781 C25.35204927 41.26211164 25.39753034 43.78484808 25.37890625 46.34375 C25.37391113 47.25552002 25.36891602 48.16729004 25.36376953 49.10668945 C24.95844203 65.08917201 18.5665189 77.80634618 8.58984375 90.078125 C6.7735823 92.35301243 6.7735823 92.35301243 4.96875 95.22265625 C-19.17802383 130.56270094 -71.50796015 146.46423802 -111.171875 154.125 C-125.72434591 156.66420952 -139.92823912 157.65960168 -154.68359375 157.59375 C-155.55816223 157.59159485 -156.43273071 157.5894397 -157.33380127 157.58721924 C-171.44046946 157.53164703 -185.23065087 156.93299631 -199.12109375 154.28125 C-200.64452393 153.99121094 -200.64452393 153.99121094 -202.19873047 153.6953125 C-226.51549805 148.88613643 -249.82541715 141.07986697 -272.12109375 130.28125 C-273.48156974 129.64019806 -274.84223976 128.99955769 -276.203125 128.359375 C-299.54566254 117.20849969 -320.82558647 102.46226559 -340.12109375 85.28125 C-340.64864258 84.81541504 -341.17619141 84.34958008 -341.71972656 83.86962891 C-366.80781183 61.6184387 -392.25258759 31.42910909 -401.12109375 -1.71875 C-400.7421875 -4.078125 -400.7421875 -4.078125 -400.12109375 -5.71875 C-396.00619225 -5.21252544 -394.18227328 -4.24505516 -391.4140625 -1.18359375 C-390.74439453 -0.45591797 -390.07472656 0.27175781 -389.38476562 1.02148438 C-388.69962891 1.78783203 -388.01449219 2.55417969 -387.30859375 3.34375 C-385.94921261 4.83581715 -384.58853697 6.32670595 -383.2265625 7.81640625 C-382.55149658 8.55681152 -381.87643066 9.2972168 -381.1809082 10.06005859 C-376.41771887 15.19642182 -371.53430499 20.15068101 -366.05859375 24.53125 C-365.12144531 25.28148437 -364.18429687 26.03171875 -363.21875 26.8046875 C-362.19652344 27.62195313 -361.17429687 28.43921875 -360.12109375 29.28125 C-358.97267446 30.23021926 -357.82559329 31.18080964 -356.6796875 32.1328125 C-306.82141438 73.26991298 -242.76571864 92.37309462 -178.54907227 86.45727539 C-138.75685033 82.23744643 -92.65131799 67.78218372 -61.12109375 42.28125 C-60.23679687 41.59546875 -59.3525 40.9096875 -58.44140625 40.203125 C-51.47919968 34.45982107 -46.28670567 27.77537355 -44.65625 18.69140625 C-44.46609398 14.12005549 -45.13458585 10.88565609 -48.12109375 7.28125 C-53.73328728 2.24466607 -58.64050449 0.33617356 -66.12109375 0.28125 C-70.16248392 0.76155928 -74.1349071 1.46512718 -78.12109375 2.28125 C-56.74878979 -15.11601192 -21.78382245 -15.54744185 0 0 Z " fill="#007DF5" transform="translate(427.12109375,323.71875)"/>
<path d="M0 0 C13.53 0 27.06 0 41 0 C42.50433594 4.52460938 44.00867187 9.04921875 45.55859375 13.7109375 C46.51090252 16.57297187 47.46329938 19.43497632 48.41601562 22.296875 C49.92900774 26.84183476 51.44166817 31.38690307 52.95239258 35.93261719 C54.17005199 39.59644135 55.38916601 43.2597785 56.60930061 46.92277908 C57.07511563 48.3220753 57.54040155 49.72154777 58.00515556 51.12119675 C58.65496088 53.07784567 59.30662532 55.03386592 59.95874023 56.98974609 C60.32958237 58.1044931 60.7004245 59.21924011 61.08250427 60.36776733 C61.91489147 62.93636902 61.91489147 62.93636902 63 65 C63.39130348 63.82275864 63.39130348 63.82275864 63.79051208 62.62173462 C66.24630047 55.23435264 68.70352303 47.84744963 71.16236782 40.46108437 C72.42650529 36.66344797 73.69008259 32.86562708 74.95239258 29.06738281 C76.17005199 25.40355865 77.38916601 21.7402215 78.60930061 18.07722092 C79.07511563 16.6779247 79.54040155 15.27845223 80.00515556 13.87880325 C80.65496088 11.92215433 81.30662532 9.96613408 81.95874023 8.01025391 C82.32958237 6.8955069 82.7004245 5.78075989 83.08250427 4.63223267 C84 2 84 2 85 0 C98.2 0 111.4 0 125 0 C125 37.29 125 74.58 125 113 C115.76 113 106.52 113 97 113 C96.67 90.23 96.34 67.46 96 44 C88.41 66.77 80.82 89.54 73 113 C66.07 113 59.14 113 52 113 C50.16839323 107.67453166 48.33865994 102.34847757 46.51293945 97.02099609 C45.8963937 95.22346351 45.2789356 93.42624351 44.66040039 91.62939453 C39.21867062 75.81757595 34.11902896 59.92586789 29 44 C28.67 66.77 28.34 89.54 28 113 C18.76 113 9.52 113 0 113 C0 75.71 0 38.42 0 0 Z " fill="#0097F6" transform="translate(1165,269)"/>
<path d="M0 0 C5.16568528 3.90624201 9.70090651 9.06915129 11.05078125 15.55078125 C12.75416882 33.99363182 4.81981791 45.28747228 -6.26171875 58.98828125 C-7.816678 60.84877635 -9.37985546 62.70242004 -10.94921875 64.55078125 C-11.43358398 65.12538086 -11.91794922 65.69998047 -12.41699219 66.29199219 C-13.98608808 68.15264638 -15.56028552 70.00884073 -17.13671875 71.86328125 C-17.62374268 72.43812256 -18.1107666 73.01296387 -18.61254883 73.60522461 C-23.27703973 79.05147376 -27.64892441 83.99598103 -33.94921875 87.55078125 C-35.44602693 88.75840288 -36.92453352 89.98896181 -38.38671875 91.23828125 C-59.2886309 108.11463995 -88.05850237 117.30614746 -114.94921875 115.55078125 C-115.91021484 115.48914795 -115.91021484 115.48914795 -116.890625 115.42626953 C-146.62201829 113.34533793 -184.75064174 102.82891542 -205.94921875 80.55078125 C-201.97590994 81.73203522 -198.31424761 83.28740186 -194.57421875 85.05078125 C-190.05605603 87.1210984 -185.85199334 88.73519682 -180.94921875 89.55078125 C-179.75619141 89.751875 -179.75619141 89.751875 -178.5390625 89.95703125 C-150.30586279 93.61612046 -123.11517328 76.19957128 -101.671875 59.69140625 C-100.77339844 58.985 -99.87492187 58.27859375 -98.94921875 57.55078125 C-98.12292969 56.90625 -97.29664063 56.26171875 -96.4453125 55.59765625 C-86.74079701 47.93373712 -77.34096299 39.89457513 -68.19140625 31.578125 C-66.23713451 29.81110926 -64.25862138 28.08164596 -62.26171875 26.36328125 C-58.94393362 23.48293229 -55.74511186 20.48940911 -52.55004883 17.47485352 C-20.81889597 -12.4213581 -20.81889597 -12.4213581 0 0 Z " fill="#FBB41B" transform="translate(440.94921875,48.44921875)"/>
<path d="M0 0 C10.993125 -0.0825 21.98625 -0.165 33.3125 -0.25 C38.48740112 -0.30462402 38.48740112 -0.30462402 43.7668457 -0.36035156 C48.03356934 -0.37841797 48.03356934 -0.37841797 50.04142761 -0.3817749 C51.42099698 -0.38785115 52.80054733 -0.40177969 54.17997742 -0.42230225 C64.33242879 -0.56557772 73.96561809 0.02129673 82.4375 6.25 C89.36475481 13.68412712 90.31520127 21.78328645 90.21484375 31.640625 C89.71898156 39.39410658 87.72624926 45.65550069 82 51 C79.41129382 52.53975089 76.7738468 53.82989093 74 55 C74.59167969 55.29132813 75.18335938 55.58265625 75.79296875 55.8828125 C82.0431331 59.12514898 86.03473637 62.06947274 89.25 68.5 C92.33335267 78.77784223 91.91822892 90.00224152 88 100 C84.15944407 106.38011053 79.03284274 109.80068345 72 112 C68.0389112 112.95731058 64.35264683 113.12119143 60.28198242 113.11352539 C59.61726331 113.11364593 58.95254419 113.11376646 58.26768208 113.11389065 C56.1302428 113.11314824 53.99289229 113.10555083 51.85546875 113.09765625 C50.54340454 113.09664917 49.23134033 113.09564209 47.8795166 113.09460449 C42.98216883 113.08937576 38.08483353 113.07541449 33.1875 113.0625 C22.235625 113.041875 11.28375 113.02125 0 113 C0 75.71 0 38.42 0 0 Z M29 22 C29 29.59 29 37.18 29 45 C33.23023155 45.13491171 37.45616484 45.23410046 41.6875 45.3125 C42.88568359 45.35439453 44.08386719 45.39628906 45.31835938 45.43945312 C52.21442629 45.64471419 52.21442629 45.64471419 58.26953125 42.75390625 C61.08987418 38.26555011 61.67499835 34.1322292 60.5546875 28.93359375 C59.4837127 25.98533552 58.55014161 24.28723208 55.74145508 22.82080078 C52.76423473 21.92941109 50.36482497 21.7714992 47.26171875 21.8046875 C46.19501953 21.81113281 45.12832031 21.81757813 44.02929688 21.82421875 C42.92650391 21.84097656 41.82371094 21.85773438 40.6875 21.875 C39.56537109 21.88402344 38.44324219 21.89304687 37.28710938 21.90234375 C34.52464783 21.92585406 31.7622964 21.96172338 29 22 Z M29 66 C29 74.25 29 82.5 29 91 C32.856875 91.04125 36.71375 91.0825 40.6875 91.125 C41.89494873 91.14320801 43.10239746 91.16141602 44.34643555 91.18017578 C45.78950073 91.18766846 45.78950073 91.18766846 47.26171875 91.1953125 C48.24100342 91.20578613 49.22028809 91.21625977 50.22924805 91.22705078 C54.10781088 90.90921983 56.96674098 89.99927024 59.78125 87.27734375 C62.28506186 82.59874658 61.70206404 77.12896787 61 72 C58.38504319 68.22284017 56.41728435 66.80870742 52 66 C50.19418245 65.92008896 48.38568191 65.89230177 46.578125 65.90234375 C45.65418945 65.90484131 44.73025391 65.90733887 43.77832031 65.90991211 C42.61397461 65.91901611 41.44962891 65.92812012 40.25 65.9375 C36.5375 65.958125 32.825 65.97875 29 66 Z " fill="#0097F6" transform="translate(615,269)"/>
<path d="M0 0 C9.61125 -0.061875 19.2225 -0.12375 29.125 -0.1875 C32.12996582 -0.21481201 35.13493164 -0.24212402 38.23095703 -0.27026367 C40.65657145 -0.27903895 43.08219035 -0.28668041 45.5078125 -0.29296875 C46.73169678 -0.30831665 47.95558105 -0.32366455 49.21655273 -0.33947754 C60.67197934 -0.34289163 74.8453979 0.38567678 83.70703125 8.578125 C97.43571694 24.47801403 92.74316364 58.30143942 91.6875 77.875 C90.97864195 87.09986503 89.88329879 98.1320315 83 105 C71.32786602 113.05718956 57.77874768 113.313833 44.04296875 113.1953125 C42.91588501 113.19329834 41.78880127 113.19128418 40.62756348 113.18920898 C36.48083331 113.17886975 32.33416187 113.15094893 28.1875 113.125 C14.2346875 113.063125 14.2346875 113.063125 0 113 C0 75.71 0 38.42 0 0 Z M30 23 C30 45.11 30 67.22 30 90 C49.89909707 91.44437076 49.89909707 91.44437076 59 87 C62.93307569 81.81549114 62.15973377 73.94825582 62.16796875 67.7265625 C62.17129715 66.84398773 62.17462555 65.96141296 62.17805481 65.05209351 C62.1831004 63.1913098 62.18546387 61.33051711 62.18530273 59.46972656 C62.18748755 56.64112258 62.2056639 53.81291003 62.22460938 50.984375 C62.22754423 49.16927216 62.22952841 47.35416747 62.23046875 45.5390625 C62.23765427 44.70235016 62.24483978 43.86563782 62.25224304 43.00357056 C62.22856415 36.83969653 62.0543952 30.50379415 58 25.5625 C49.41385736 18.85457606 45.71089909 23 30 23 Z " fill="#0097F6" transform="translate(938,269)"/>
<path d="M0 0 C16.520625 -0.0928125 16.520625 -0.0928125 33.375 -0.1875 C36.83403809 -0.21481201 40.29307617 -0.24212402 43.85693359 -0.27026367 C48.12817383 -0.28381348 48.12817383 -0.28381348 50.13687134 -0.28633118 C51.5197948 -0.29089442 52.90270743 -0.30135384 54.28555298 -0.31672668 C65.43211008 -0.43429043 75.86403958 -0.2215844 84.30859375 7.84765625 C92.45239538 18.21078489 91.85607647 33.87574188 90.69140625 46.2890625 C89.46505744 54.86265155 87.56047972 61.03537371 80.8515625 66.73046875 C80.13049316 67.34688232 79.40942383 67.9632959 78.66650391 68.59838867 C78.11655762 69.06092041 77.56661133 69.52345215 77 70 C77.67373657 71.74071777 77.67373657 71.74071777 78.36108398 73.51660156 C80.02769438 77.82443873 81.69119441 82.13347135 83.35375977 86.44287109 C84.07361492 88.3074565 84.79431196 90.17171711 85.51586914 92.03564453 C86.55316388 94.71562006 87.5874205 97.39675092 88.62109375 100.078125 C88.94403915 100.91055725 89.26698456 101.7429895 89.59971619 102.60064697 C89.89995193 103.38115417 90.20018768 104.16166138 90.50952148 104.96582031 C90.77377426 105.64976868 91.03802704 106.33371704 91.31028748 107.03839111 C91.99540636 108.98693524 92.49904725 110.99618902 93 113 C82.77 113 72.54 113 62 113 C60.8567232 107.94712486 59.71606521 102.89380429 58.58203125 97.83886719 C58.19554284 96.11977195 57.8075339 94.40101782 57.41796875 92.68261719 C56.85796465 90.21117051 56.30345791 87.73854476 55.75 85.265625 C55.57500977 84.49881409 55.40001953 83.73200317 55.21972656 82.94195557 C54.45747083 79.51324262 54 76.53252103 54 73 C45.75 73 37.5 73 29 73 C29 86.2 29 99.4 29 113 C19.43 113 9.86 113 0 113 C0 75.71 0 38.42 0 0 Z M29 22 C29 31.57 29 41.14 29 51 C35.0328125 51.061875 35.0328125 51.061875 41.1875 51.125 C43.07698364 51.15231201 43.07698364 51.15231201 45.00463867 51.18017578 C46.0072876 51.1851709 47.00993652 51.19016602 48.04296875 51.1953125 C49.57473755 51.21102295 49.57473755 51.21102295 51.13745117 51.22705078 C54.1551823 50.9876913 56.2933279 50.33328441 59 49 C61.84221782 45.46666539 61.40417514 40.89843427 61.4375 36.5625 C61.47037109 35.81162109 61.50324219 35.06074219 61.53710938 34.28710938 C61.57720237 30.14295186 61.33860313 28.45445676 58.78515625 25.02734375 C54.605899 21.98521961 50.76330137 21.87272923 45.69921875 21.90234375 C44.81838623 21.90484131 43.93755371 21.90733887 43.0300293 21.90991211 C41.92699463 21.91901611 40.82395996 21.92812012 39.6875 21.9375 C36.160625 21.958125 32.63375 21.97875 29 22 Z " fill="#0097F6" transform="translate(827,269)"/>
<path d="M0 0 C9.57 0 19.14 0 29 0 C29 14.52 29 29.04 29 44 C36.34758799 43.79531565 36.34758799 43.79531565 38.84765625 41.50732422 C39.24855469 40.8629541 39.64945313 40.21858398 40.0625 39.5546875 C40.78131348 38.44939697 40.78131348 38.44939697 41.51464844 37.32177734 C42.00481445 36.51434082 42.49498047 35.7069043 43 34.875 C44.10745068 33.15500946 45.2169241 31.43632009 46.328125 29.71875 C46.91271484 28.79964844 47.49730469 27.88054687 48.09960938 26.93359375 C51.51788149 21.65687771 55.1449102 16.52501291 58.75 11.375 C59.80574219 9.85495361 59.80574219 9.85495361 60.8828125 8.30419922 C65.87043134 1.12956866 65.87043134 1.12956866 67 0 C69.3756852 -0.0883967 71.72208674 -0.11530305 74.09765625 -0.09765625 C75.16094398 -0.09553383 75.16094398 -0.09553383 76.24571228 -0.09336853 C78.51801712 -0.08775443 80.79022475 -0.07519963 83.0625 -0.0625 C84.59960796 -0.05748681 86.13671745 -0.05292359 87.67382812 -0.04882812 C91.44925642 -0.03778042 95.22461171 -0.02050641 99 0 C96.0443928 5.40798152 92.70776956 10.34835547 89.0625 15.3125 C87.90487553 16.90229104 86.74732566 18.49213641 85.58984375 20.08203125 C84.99800293 20.89236816 84.40616211 21.70270508 83.79638672 22.53759766 C80.89381203 26.51631039 78.00882767 30.50768791 75.125 34.5 C74.58343262 35.24918701 74.04186523 35.99837402 73.48388672 36.77026367 C69.60394542 42.14456335 65.76812325 47.54649799 62 53 C64.84198034 58.97714053 68.09505818 64.41096663 71.796875 69.890625 C72.34933899 70.71649109 72.90180298 71.54235718 73.4710083 72.39324951 C75.22632017 75.0151148 76.98799938 77.63262641 78.75 80.25 C79.91709767 81.9905965 81.08376795 83.73147965 82.25 85.47265625 C86.36326597 91.61095055 90.48022926 97.74673739 94.61132812 103.87304688 C95.34287109 104.96166016 96.07441406 106.05027344 96.828125 107.171875 C97.76253418 108.55777832 97.76253418 108.55777832 98.71582031 109.97167969 C100 112 100 112 100 113 C71.49783294 116.94380292 71.49783294 116.94380292 63.02880859 110.86865234 C57.98087388 105.10355851 54.76841851 98.32567959 51.60302734 91.39648438 C49.1356604 86.16864262 46.11511608 81.36003093 43 76.5 C42.50717529 75.65276367 42.01435059 74.80552734 41.5065918 73.93261719 C41.0300415 73.16079102 40.55349121 72.38896484 40.0625 71.59375 C39.66160156 70.92021484 39.26070312 70.24667969 38.84765625 69.55273438 C36.37044596 67.18539937 36.37044596 67.18539937 29 67 C29 82.18 29 97.36 29 113 C19.43 113 9.86 113 0 113 C0 75.71 0 38.42 0 0 Z " fill="#0097F6" transform="translate(1530,269)"/>
<path d="M0 0 C13.53 0 27.06 0 41 0 C49.89159032 27.55873023 58.76522337 55.12325064 67.49319458 82.73431396 C68.2474683 85.11893912 69.0032252 87.50309565 69.76046753 89.88677979 C70.81593956 93.21094755 71.86581461 96.5368295 72.9140625 99.86328125 C73.22881027 100.85132248 73.54355804 101.83936371 73.86784363 102.85734558 C74.15073746 103.75947281 74.43363129 104.66160004 74.72509766 105.59106445 C74.97280914 106.37479935 75.22052063 107.15853424 75.47573853 107.96601868 C76 110 76 110 76 113 C66.1 113 56.2 113 46 113 C45.01 109.74125 44.02 106.4825 43 103.125 C42.68675781 102.09906738 42.37351562 101.07313477 42.05078125 100.01611328 C41.80714844 99.20899902 41.56351563 98.40188477 41.3125 97.5703125 C41.06113281 96.74289551 40.80976562 95.91547852 40.55078125 95.06298828 C40 93 40 93 40 91 C27.13 91.33 14.26 91.66 1 92 C-0.93308351 98.53595046 -0.93308351 98.53595046 -2.85913086 105.07397461 C-3.10026611 105.88358643 -3.34140137 106.69319824 -3.58984375 107.52734375 C-3.83597412 108.35999756 -4.08210449 109.19265137 -4.33569336 110.05053711 C-5 112 -5 112 -6 113 C-8.14558827 113.08775605 -10.29404421 113.10695219 -12.44140625 113.09765625 C-13.74658203 113.09443359 -15.05175781 113.09121094 -16.39648438 113.08789062 C-17.7851569 113.07953401 -19.17382877 113.07106905 -20.5625 113.0625 C-21.95507656 113.05748666 -23.34765481 113.05292347 -24.74023438 113.04882812 C-28.1601987 113.03699434 -31.58007844 113.0205088 -35 113 C-33.08269537 104.93093192 -30.84045031 97.04111555 -28.26171875 89.16015625 C-27.90389816 88.05465927 -27.54607758 86.94916229 -27.17741394 85.81016541 C-26.412584 83.4477122 -25.64611055 81.08579053 -24.87811279 78.72436523 C-22.85355273 72.49760019 -20.84230264 66.26654659 -18.83203125 60.03515625 C-18.6291449 59.40657337 -18.42625854 58.77799049 -18.21722412 58.13035965 C-11.9816157 38.80393002 -5.99903441 19.40113257 0 0 Z M20 26 C17.97940235 31.2647774 16.14675345 36.53157489 14.51953125 41.9296875 C14.30181564 42.64609406 14.08410004 43.36250061 13.85978699 44.10061646 C13.40563303 45.59760879 12.95278897 47.0949991 12.5012207 48.59277344 C11.8076039 50.89122431 11.10815565 53.18784664 10.40820312 55.484375 C9.96579789 56.94520717 9.52372828 58.40614104 9.08203125 59.8671875 C8.87270462 60.55360321 8.66337799 61.24001892 8.44770813 61.94723511 C7.36534207 65.41258599 7.36534207 65.41258599 7 69 C15.58 69 24.16 69 33 69 C31.69517654 63.12829443 30.33367647 57.42613892 28.6171875 51.68359375 C28.28849167 50.57069725 28.28849167 50.57069725 27.95315552 49.43531799 C27.26326807 47.10186247 26.56921637 44.76967084 25.875 42.4375 C25.40206576 40.84057709 24.92940714 39.24357253 24.45703125 37.64648438 C23.30786527 33.76337356 22.15496701 29.88138915 21 26 C20.67 26 20.34 26 20 26 Z " fill="#0097F6" transform="translate(1440,269)"/>
<path d="M0 0 C13.2 0 26.4 0 40 0 C41.7481678 4.6617808 43.44819156 9.22688809 44.97021484 13.94897461 C45.32886627 15.05867111 45.6875177 16.16836761 46.05703735 17.31169128 C46.4378244 18.4966066 46.81861145 19.68152191 47.2109375 20.90234375 C47.61597504 22.15779495 48.02101257 23.41324615 48.43832397 24.70674133 C49.528314 28.08592283 50.61577691 31.46591207 51.70249939 34.84614563 C52.37578441 36.93993936 53.04967096 39.03353854 53.72375488 41.1270752 C56.82184738 50.74945673 59.91336732 60.37393659 63 70 C63.3755603 71.17113342 63.75112061 72.34226685 64.13806152 73.54888916 C66.06807955 79.57027725 67.99388427 85.59298043 69.91192627 91.61819458 C70.46894375 93.36739821 71.0268405 95.1163221 71.58563232 96.86495972 C72.34649189 99.24759089 73.10358083 101.63138302 73.859375 104.015625 C74.1906691 105.05013542 74.1906691 105.05013542 74.52865601 106.10554504 C76 110.77045743 76 110.77045743 76 113 C66.1 113 56.2 113 46 113 C43.40918376 106.0911567 41.16995592 99.05235675 39 92 C19.695 91.505 19.695 91.505 0 91 C-0.66 93.97 -1.32 96.94 -2 100 C-3.32 104.29 -4.64 108.58 -6 113 C-15.57 113 -25.14 113 -35 113 C-34.28857979 108.02005852 -33.54749398 104.10734747 -32.04150391 99.42675781 C-31.84425878 98.8083562 -31.64701365 98.18995459 -31.44379139 97.55281353 C-30.79330827 95.51785536 -30.13495496 93.48553651 -29.4765625 91.453125 C-29.0136501 90.00989515 -28.55126374 88.56649648 -28.08937073 87.12294006 C-26.86027373 83.2859843 -25.62461102 79.4511735 -24.3876915 75.61673355 C-23.11809998 71.67702155 -21.85462093 67.73535209 -20.59106445 63.79370117 C-20.08870802 62.2267886 -19.58634294 60.6598788 -19.08396912 59.0929718 C-18.83701231 58.32268457 -18.5900555 57.55239735 -18.33561516 56.75876808 C-17.59212096 54.44069368 -16.84786699 52.12286447 -16.10340881 49.80509949 C-11.96881317 36.92915421 -7.90025091 24.03325288 -3.88330078 11.12011719 C-3.50286621 9.90098633 -3.12243164 8.68185547 -2.73046875 7.42578125 C-2.41489014 6.40911377 -2.09931152 5.39244629 -1.77416992 4.3449707 C-1 2 -1 2 0 0 Z M19 25 C17.28585347 30.78258518 15.57699478 36.5666963 13.87304688 42.35229492 C13.29247279 44.32082422 12.71044855 46.28892644 12.12695312 48.2565918 C11.28916143 51.08271395 10.45657361 53.91032414 9.625 56.73828125 C9.36251465 57.61962234 9.1000293 58.50096344 8.82958984 59.40901184 C8.58934082 60.22963608 8.3490918 61.05026031 8.1015625 61.89575195 C7.88838379 62.61745071 7.67520508 63.33914948 7.45556641 64.0827179 C6.88441289 66.1580124 6.88441289 66.1580124 7 69 C15.58 69 24.16 69 33 69 C28.83720305 54.27791323 24.50123128 39.62197475 20 25 C19.67 25 19.34 25 19 25 Z " fill="#0097F6" transform="translate(1076,269)"/>
<path d="M0 0 C10.68375 -0.061875 21.3675 -0.12375 32.375 -0.1875 C35.72962402 -0.21481201 39.08424805 -0.24212402 42.54052734 -0.27026367 C45.22232707 -0.27903185 47.90413082 -0.28667501 50.5859375 -0.29296875 C51.26967438 -0.30080887 51.95341125 -0.30864899 52.65786743 -0.31672668 C63.75634864 -0.43745917 73.91778371 -0.09468402 82.30859375 7.90625 C91.46196236 19.23697881 89.64306971 36.3812126 89 50 C87.96808545 58.86746909 85.15750838 65.85064655 78.1015625 71.52734375 C64.53095405 80.2296856 44.1149107 77.14395153 29 77 C29 88.88 29 100.76 29 113 C19.43 113 9.86 113 0 113 C0 75.71 0 38.42 0 0 Z M29 22 C29 32.56 29 43.12 29 54 C32.526875 54.04125 36.05375 54.0825 39.6875 54.125 C41.342052 54.15231201 41.342052 54.15231201 43.0300293 54.18017578 C44.35127808 54.18766846 44.35127808 54.18766846 45.69921875 54.1953125 C46.59471436 54.20578613 47.49020996 54.21625977 48.4128418 54.22705078 C52.21712862 53.89318396 55.05258377 52.94951229 57.765625 50.23046875 C61.19416191 44.03523275 60.8510883 33.77297424 59 27 C57.05730026 24.22471466 55.94982868 23.24027721 52.67700195 22.41235352 C50.0385867 22.00594372 47.58525938 21.88598 44.91796875 21.90234375 C44.0777417 21.90484131 43.23751465 21.90733887 42.37182617 21.90991211 C41.32099854 21.91901611 40.2701709 21.92812012 39.1875 21.9375 C35.825625 21.958125 32.46375 21.97875 29 22 Z " fill="#0097F6" transform="translate(1314,269)"/>
<path d="M0 0 C26.4 0 52.8 0 80 0 C80 7.59 80 15.18 80 23 C63.5 23 47 23 30 23 C30 30.26 30 37.52 30 45 C43.86 45 57.72 45 72 45 C72 52.26 72 59.52 72 67 C58.14 67 44.28 67 30 67 C30 74.59 30 82.18 30 90 C46.5 90 63 90 80 90 C80 97.59 80 105.18 80 113 C53.6 113 27.2 113 0 113 C0 75.71 0 38.42 0 0 Z " fill="#0097F6" transform="translate(726,269)"/>
<path d="M0 0 C24 0 24 0 28.9140625 4.0390625 C30.37573242 6.7043457 30.37573242 6.7043457 31.625 9.625 C32.69411719 11.65366186 33.76580798 13.68096914 34.83984375 15.70703125 C35.35401855 16.75197754 35.86819336 17.79692383 36.39794922 18.87353516 C38.97928123 23.91110567 42.08977463 28.58162875 45.1875 33.3125 C46.24559799 34.97391953 47.301577 36.63669039 48.35546875 38.30078125 C53.20653301 45.88674348 58.10833528 53.44015452 63 61 C63.33 40.87 63.66 20.74 64 0 C71.26 0 78.52 0 86 0 C86 34.98 86 69.96 86 106 C78.74 106 71.48 106 64 106 C57.31730519 97.50740868 57.31730519 97.50740868 55.55078125 93.3828125 C52.92519806 87.65407695 49.63650899 82.51251713 46.1875 77.25 C45.00695014 75.40633208 43.82858764 73.56126182 42.65234375 71.71484375 C42.0579248 70.78526855 41.46350586 69.85569336 40.85107422 68.89794922 C37.03766754 62.92787044 33.24177573 56.94662165 29.44213867 50.96777344 C28.88888916 50.09797852 28.33563965 49.22818359 27.765625 48.33203125 C27.27868164 47.56608643 26.79173828 46.8001416 26.29003906 46.01098633 C25.2111313 44.32912349 24.10838823 42.66258235 23 41 C22.67 62.45 22.34 83.9 22 106 C14.74 106 7.48 106 0 106 C0 71.02 0 36.04 0 0 Z " fill="#FFB808" transform="translate(1249,110)"/>
<path d="M0 0 C66.54285714 0 66.54285714 0 77.3125 10.1875 C82.92390652 19.53984419 83.15331505 30.73604613 83.16796875 41.35546875 C83.17296135 42.65161858 83.17296135 42.65161858 83.17805481 43.97395325 C83.18308425 45.7916308 83.18546438 47.60931745 83.18530273 49.42700195 C83.18748057 52.16308357 83.20565546 54.89875551 83.22460938 57.63476562 C83.32801471 89.38434825 83.32801471 89.38434825 74.25 98.875 C54.41580963 111.84350909 19.39320539 106 0 106 C0 71.02 0 36.04 0 0 Z M23 19 C23 41.44 23 63.88 23 87 C46.28633372 88.70698363 46.28633372 88.70698363 56 84 C59.21861019 79.81580676 60.11379956 75.82355187 60.16113281 70.63378906 C60.17074036 69.77899963 60.1803479 68.92421021 60.19024658 68.04351807 C60.19449646 67.12681335 60.19874634 66.21010864 60.203125 65.265625 C60.21167511 63.8376358 60.21167511 63.8376358 60.22039795 62.38079834 C60.22983655 60.36683255 60.2363774 58.3528514 60.24023438 56.33886719 C60.24992061 53.27511246 60.28094702 50.21203434 60.3125 47.1484375 C60.31903257 45.18750396 60.32428204 43.22656565 60.328125 41.265625 C60.3404718 40.35701721 60.3528186 39.44840942 60.36553955 38.51226807 C60.34529115 32.65993661 59.45919634 28.33299852 57 23 C48.22387871 14.4981325 33.86626136 19 23 19 Z " fill="#FFB808" transform="translate(615,110)"/>
<path d="M0 0 C7.59 0 15.18 0 23 0 C23 14.19 23 28.38 23 43 C32.07955748 42.92311385 32.07955748 42.92311385 35.19824219 40.44384766 C35.64329102 39.77401855 36.08833984 39.10418945 36.546875 38.4140625 C37.07498779 37.65681885 37.60310059 36.8995752 38.1472168 36.11938477 C38.67613525 35.29623779 39.20505371 34.47309082 39.75 33.625 C40.93789239 31.89650988 42.12672359 30.16866465 43.31640625 28.44140625 C43.91727051 27.54695801 44.51813477 26.65250977 45.13720703 25.73095703 C48.19465862 21.2485647 51.44730852 16.91359002 54.6875 12.5625 C55.83802641 11.00188185 56.98781952 9.44072269 58.13671875 7.87890625 C59.08968236 6.58485849 60.04404742 5.29184129 61 4 C61.65282959 2.9020813 61.65282959 2.9020813 62.31884766 1.78198242 C64 0 64 0 66.63549805 -0.45410156 C68.18297729 -0.42268066 68.18297729 -0.42268066 69.76171875 -0.390625 C70.87998047 -0.37773438 71.99824219 -0.36484375 73.15039062 -0.3515625 C74.31763672 -0.31804687 75.48488281 -0.28453125 76.6875 -0.25 C77.86634766 -0.23195313 79.04519531 -0.21390625 80.25976562 -0.1953125 C83.17398926 -0.14811859 86.08659031 -0.08229077 89 0 C87.64913667 2.86679674 86.11382476 5.36480222 84.234375 7.9140625 C83.40389648 9.042677 83.40389648 9.042677 82.55664062 10.1940918 C81.66235352 11.39739136 81.66235352 11.39739136 80.75 12.625 C80.13318359 13.45878174 79.51636719 14.29256348 78.88085938 15.15161133 C73.41725784 22.50491598 67.81154811 29.74283977 62.15625 36.94921875 C61.63804688 37.61872559 61.11984375 38.28823242 60.5859375 38.97802734 C59.48888624 40.37670015 58.36722978 41.75629283 57.2265625 43.11962891 C53.99468845 46.91660684 53.99468845 46.91660684 52.83203125 51.58984375 C54.42391725 54.87477239 56.46207087 57.69109119 58.6875 60.5625 C59.69350242 61.89685973 60.69729687 63.23288612 61.69921875 64.5703125 C62.23466309 65.28348633 62.77010742 65.99666016 63.32177734 66.73144531 C66.29153318 70.74584323 69.14440152 74.84148009 72 78.9375 C72.58563721 79.77716309 73.17127441 80.61682617 73.7746582 81.48193359 C75.51870373 83.98638973 77.2597005 86.49293977 79 89 C79.83869629 90.2055957 79.83869629 90.2055957 80.69433594 91.43554688 C82.25756046 93.68413515 83.81712206 95.93520516 85.375 98.1875 C85.84550781 98.86482178 86.31601563 99.54214355 86.80078125 100.23999023 C90 104.88384101 90 104.88384101 90 106 C85.81370201 106.26273837 81.62952953 106.42164781 77.4375 106.5625 C76.25607422 106.63791016 75.07464844 106.71332031 73.85742188 106.79101562 C65.2550264 107.00788274 65.2550264 107.00788274 61.77832031 104.21582031 C59.95914193 101.89861591 58.46790553 99.55204657 57 97 C56.13331406 95.75534663 55.25645029 94.51768702 54.3671875 93.2890625 C53.5346083 92.06896872 52.70392469 90.84757957 51.875 89.625 C51.41617432 88.96234131 50.95734863 88.29968262 50.48461914 87.61694336 C47.80337286 83.72915871 45.23664782 79.79508591 42.75390625 75.77734375 C42.2017041 74.90964355 41.64950195 74.04194336 41.08056641 73.14794922 C40.00753794 71.45948392 38.96020852 69.75433217 37.94287109 68.03173828 C37.19577881 66.87327393 37.19577881 66.87327393 36.43359375 65.69140625 C36.01134521 65.00248291 35.58909668 64.31355957 35.15405273 63.60375977 C32.10186268 61.04425725 32.10186268 61.04425725 23 61 C23 75.85 23 90.7 23 106 C15.41 106 7.82 106 0 106 C0 71.02 0 36.04 0 0 Z " fill="#FFB808" transform="translate(1540,110)"/>
<path d="M0 0 C10.23 0 20.46 0 31 0 C32.35351562 4.07214844 33.70703125 8.14429687 35.1015625 12.33984375 C36.70052588 17.14697243 38.30027092 21.95384065 39.90036392 26.76059341 C40.38179655 28.20688334 40.86317864 29.65319009 41.34450912 31.09951401 C48.16055308 51.57998387 55.02611835 72.04131021 62.08642578 92.43920898 C62.35695267 93.22421783 62.62747955 94.00922668 62.90620422 94.81802368 C63.40206945 96.25666698 63.90040535 97.69446226 64.40177917 99.13119507 C66 103.77474027 66 103.77474027 66 106 C58.41 106 50.82 106 43 106 C40.10198906 98.75497264 37.4675674 91.40270221 35 84 C21.8 84 8.6 84 -5 84 C-7.31 91.26 -9.62 98.52 -12 106 C-19.59 106 -27.18 106 -35 106 C-32.7500055 95.87502475 -32.7500055 95.87502475 -31.25097656 91.48828125 C-30.91545273 90.49876465 -30.57992889 89.50924805 -30.23423767 88.48974609 C-29.87334549 87.44125488 -29.51245331 86.39276367 -29.140625 85.3125 C-28.7591481 84.19182129 -28.3776712 83.07114258 -27.9846344 81.91650391 C-26.74425042 78.27611818 -25.49719653 74.63805673 -24.25 71 C-23.39369864 68.49103067 -22.5378261 65.98191494 -21.68237305 63.47265625 C-19.53498147 57.17608912 -17.38165267 50.8815688 -15.22723389 44.58740234 C-13.35754134 39.12198985 -11.49308218 33.65479609 -9.62890625 28.1875 C-6.4240092 18.79004192 -3.21362422 9.39447734 0 0 Z M14 22 C12.14486225 27.65877739 10.29354546 33.31878471 8.44580078 38.97998047 C7.81632384 40.90675837 7.18579335 42.83319241 6.55419922 44.75927734 C5.64795952 47.52352183 4.74548239 50.2889699 3.84375 53.0546875 C3.55939087 53.9193161 3.27503174 54.7839447 2.98205566 55.67477417 C2.72178589 56.47545319 2.46151611 57.2761322 2.19335938 58.10107422 C1.96241577 58.8072287 1.73147217 59.51338318 1.49353027 60.24093628 C0.90995547 62.01644331 0.90995547 62.01644331 1 64 C10.24 64 19.48 64 29 64 C26.73668758 55.7011878 24.32011016 47.55755829 21.61108398 39.40771484 C20.92783338 37.34582845 20.25590134 35.28044732 19.58398438 33.21484375 C19.14912184 31.90081499 18.71360022 30.58700413 18.27734375 29.2734375 C17.88796631 28.09185059 17.49858887 26.91026367 17.09741211 25.69287109 C16.29283874 22.87162181 16.29283874 22.87162181 14 22 Z " fill="#FFB808" transform="translate(1123,110)"/>
<path d="M0 0 C7.26 0 14.52 0 22 0 C22 14.19 22 28.38 22 43 C31.59630022 43.07211308 31.59630022 43.07211308 35.546875 38.6328125 C36.6449418 37.15224853 37.71136054 35.64784223 38.75 34.125 C39.32927246 33.32940674 39.90854492 32.53381348 40.50537109 31.71411133 C41.72990916 30.02785948 42.94175569 28.33232778 44.14160156 26.62841797 C46.63168982 23.10657218 49.20336643 19.64800831 51.77441406 16.18505859 C53.54030637 13.80180288 55.29107414 11.40812118 57.0390625 9.01171875 C57.565 8.31570557 58.0909375 7.61969238 58.6328125 6.90258789 C60.14998182 4.88198024 60.14998182 4.88198024 61.6015625 1.9765625 C65.89985284 -1.56567677 71.40143445 -0.50585749 76.75 -0.3125 C78.51150391 -0.27866211 78.51150391 -0.27866211 80.30859375 -0.24414062 C83.20701637 -0.1852296 86.10286427 -0.10301631 89 0 C86.24779493 5.09547402 83.18631922 9.48362504 79.5 13.9375 C73.60382462 21.1826226 67.9791598 28.60454756 62.41064453 36.10302734 C60.19996914 39.07584627 57.97474326 42.03770355 55.75 45 C55.02296875 45.969375 54.2959375 46.93875 53.546875 47.9375 C52.78117188 48.9584375 52.78117188 48.9584375 52 50 C54.86817605 55.20871594 58.03591073 60.04602894 61.5 64.875 C62.5690764 66.37755722 63.63808485 67.88016279 64.70703125 69.3828125 C65.25182129 70.14625977 65.79661133 70.90970703 66.35791016 71.69628906 C70.45756088 77.44774673 74.52388543 83.22288778 78.58935547 88.99853516 C79.52419751 90.32491713 80.46070226 91.65012888 81.39892578 92.97412109 C82.6869649 94.79222893 83.96917688 96.61430459 85.25 98.4375 C86.34054687 99.98244141 86.34054687 99.98244141 87.453125 101.55859375 C89 104 89 104 89 106 C80.40453353 107.47095036 71.45861669 108.60803109 63 106 C56.38975282 101.03479728 52.68778859 93.33315782 48.81005859 86.20019531 C45.91863901 81.08814677 42.49142715 76.38554934 39.0625 71.625 C37.90584548 69.97254741 36.75073441 68.31901265 35.59765625 66.6640625 C33.93292527 64.21914327 33.93292527 64.21914327 32 62 C28.7 61.67 25.4 61.34 22 61 C22 75.85 22 90.7 22 106 C14.74 106 7.48 106 0 106 C0 71.02 0 36.04 0 0 Z " fill="#FFB808" transform="translate(766,110)"/>
<path d="M0 0 C23.76 0 47.52 0 72 0 C72 6.27 72 12.54 72 19 C55.5 19 39 19 22 19 C22 26.92 22 34.84 22 43 C36.19 43 50.38 43 65 43 C65 49.27 65 55.54 65 62 C50.81 62 36.62 62 22 62 C22 70.25 22 78.5 22 87 C38.5 87 55 87 72 87 C72 93.27 72 99.54 72 106 C48.24 106 24.48 106 0 106 C0 71.02 0 36.04 0 0 Z " fill="#FFB808" transform="translate(1448,110)"/>
<path d="M0 0 C1.00104263 -0.00058914 1.00104263 -0.00058914 2.02230835 -0.00119019 C29.39315666 0.01815666 29.39315666 0.01815666 32.5625 3.1875 C32.63575168 6.05017567 32.65488205 8.888219 32.625 11.75 C32.62048828 12.55630859 32.61597656 13.36261719 32.61132812 14.19335938 C32.59950518 16.19143756 32.58156914 18.18947783 32.5625 20.1875 C31.70720703 20.1467334 30.85191406 20.1059668 29.97070312 20.06396484 C7.46800588 17.96066653 7.46800588 17.96066653 -14.4375 21.1875 C-16.97513871 24.30789499 -17.84026355 26.75757364 -17.75 30.75 C-17.74419922 31.86568359 -17.74419922 31.86568359 -17.73828125 33.00390625 C-17.36878298 35.68636774 -17.15207182 37.04767817 -15.4375 39.1875 C-7.50485275 42.00670062 1.24987325 42.36160603 9.58105469 43.28662109 C26.44352683 45.17985043 26.44352683 45.17985043 32.875 51.4375 C40.23513585 63.43179545 39.43700973 77.82491424 36.5625 91.1875 C34.67043945 97.09000469 31.76479182 100.68595743 26.5625 104.1875 C17.87076083 108.34215132 9.09547203 108.38011227 -0.375 108.375 C-2.21819824 108.3759668 -2.21819824 108.3759668 -4.09863281 108.37695312 C-15.61879472 108.31161578 -26.99053769 107.42500944 -38.4375 106.1875 C-38.4375 99.9175 -38.4375 93.6475 -38.4375 87.1875 C-36.45621094 87.34734375 -34.47492187 87.5071875 -32.43359375 87.671875 C-25.13007893 88.19033722 -17.8429321 88.40637017 -10.52124023 88.42773438 C-8.47666229 88.43761276 -6.43302348 88.46887391 -4.38867188 88.5 C5.04558434 88.66882966 5.04558434 88.66882966 13.5625 85.1875 C14.57952117 82.1364365 14.72832083 79.94550939 14.75 76.75 C14.76417969 75.80253906 14.77835938 74.85507813 14.79296875 73.87890625 C14.50944237 70.19697456 14.50944237 70.19697456 12.5625 67.1875 C4.21259101 64.24881844 -5.07008681 63.87619841 -13.81640625 62.86328125 C-22.14132523 61.80437222 -30.19005981 60.73492636 -35.8125 53.8125 C-36.50472656 52.99652344 -36.50472656 52.99652344 -37.2109375 52.1640625 C-42.81911044 43.12668827 -42.35381803 29.04484062 -40.29296875 18.87890625 C-38.0622266 11.86072661 -34.0044223 6.60777203 -27.4375 3.1875 C-18.62523906 -0.37490336 -9.34566536 -0.00518084 0 0 Z " fill="#FFB808" transform="translate(1040.4375,108.8125)"/>
<path d="M0 0 C8.03547817 5.66584756 14.94228203 13.73187043 16.75390625 23.64453125 C17.56784062 36.36058789 17.16060184 46.77939792 8.62890625 56.95703125 C0.46898406 65.39879286 -8.26303253 69.61142477 -19.99609375 70.01953125 C-31.04137534 69.85502706 -39.70142884 65.93229232 -47.80859375 58.51953125 C-54.59394787 51.4939876 -58.1795687 42.24714246 -58.27734375 32.54296875 C-57.67648132 19.71455584 -53.66384344 11.4074043 -44.24609375 2.64453125 C-31.37986391 -7.61898797 -14.06988359 -8.49086888 0 0 Z " fill="#FBA902" transform="translate(286.24609375,44.35546875)"/>
<path d="M0 0 C1.76261037 1.70516681 3.34114477 3.39935312 4.9375 5.25 C11.50500685 12.62738925 18.49387249 19.55411795 25.52514648 26.48730469 C29.28024343 30.20705213 32.9901058 33.90720813 36.421875 37.9296875 C39.29063803 41.27960249 42.35123226 44.39973374 45.49609375 47.48828125 C45.97891312 47.96322525 46.46173248 48.43816925 46.95918274 48.92750549 C48.96289626 50.89468808 50.96959667 52.85862122 52.98510742 54.8137207 C54.47461499 56.26109696 55.95467072 57.71760252 57.43359375 59.17578125 C58.31072021 60.03083252 59.18784668 60.88588379 60.09155273 61.7668457 C62 64 62 64 62 67 C57.50259535 68.88186578 53.00027698 70.75122851 48.49291992 72.60913086 C46.95992394 73.24307656 45.42833338 73.88043189 43.89819336 74.52124023 C41.70005017 75.4411115 39.49716424 76.34865069 37.29296875 77.25390625 C36.26625313 77.68818687 36.26625313 77.68818687 35.21879578 78.13124084 C30.34161512 80.11387171 30.34161512 80.11387171 27 79 C26.97421875 78.18917969 26.9484375 77.37835938 26.921875 76.54296875 C26.25052264 63.43633971 22.61942767 52.15349144 12.828125 42.9609375 C1.37578261 33.68059108 -10.29927794 30.6054651 -25 32 C-38.19882643 35.06694722 -47.64724922 41.68807573 -55 53 C-56.80651208 56.27458899 -58.4569387 59.59388773 -60 63 C-63.81271791 59.82273508 -67.45516471 56.600001 -70.9375 53.0625 C-74.23567532 49.71309089 -77.67913393 46.6075004 -81.234375 43.53515625 C-83.26151747 41.77261866 -85.2139441 40.00931289 -87 38 C-87 37.34 -87 36.68 -87 36 C-67.72546226 27.22345039 -48.38149335 18.6162617 -28.97680664 10.13134766 C-28.13642349 9.76354187 -27.29604034 9.39573608 -26.43019104 9.01678467 C-24.80261071 8.30506354 -23.17440374 7.59477338 -21.54551697 6.88604736 C-16.34106066 4.6150494 -11.20224378 2.2349021 -6.12011719 -0.30053711 C-3.59622428 -1.13321251 -2.44310873 -0.99541193 0 0 Z " fill="#0081F6" transform="translate(283,1)"/>
<path d="M0 0 C27.39 0 54.78 0 83 0 C83 6.27 83 12.54 83 19 C73.1 19 63.2 19 53 19 C53 47.71 53 76.42 53 106 C45.41 106 37.82 106 30 106 C30 77.29 30 48.58 30 19 C20.1 19 10.2 19 0 19 C0 12.73 0 6.46 0 0 Z " fill="#FFB808" transform="translate(1350,110)"/>
<path d="M0 0 C27.72 0 55.44 0 84 0 C84 6.27 84 12.54 84 19 C73.77 19 63.54 19 53 19 C53 47.71 53 76.42 53 106 C45.74 106 38.48 106 31 106 C31 77.29 31 48.58 31 19 C20.77 19 10.54 19 0 19 C0 12.73 0 6.46 0 0 Z " fill="#FFB808" transform="translate(859,110)"/>
<path d="M0 0 C7.59 0 15.18 0 23 0 C23 34.98 23 69.96 23 106 C15.41 106 7.82 106 0 106 C0 71.02 0 36.04 0 0 Z " fill="#FFB808" transform="translate(957,110)"/>
<path d="M0 0 C7.59 0 15.18 0 23 0 C23 34.98 23 69.96 23 106 C15.41 106 7.82 106 0 106 C0 71.02 0 36.04 0 0 Z " fill="#FFB808" transform="translate(719,110)"/>
<path d="M0 0 C7.26 0 14.52 0 22 0 C22 34.98 22 69.96 22 106 C14.74 106 7.48 106 0 106 C0 71.02 0 36.04 0 0 Z " fill="#FFB808" transform="translate(1203,110)"/>
</svg>
