<svg id="Layer_1" data-name="Layer 1" xmlns="http://www.w3.org/2000/svg" viewBox="0 0 392.1 437.4"><defs><style>.cls-1,.cls-2,.cls-3,.cls-4,.cls-5,.cls-8,.cls-9{fill-rule:evenodd;}.cls-2{fill:#fff212;}.cls-3,.cls-7{fill:#ce8944;}.cls-4{fill:#201e1e;}.cls-5{fill:#fefefe;}.cls-6,.cls-9{fill:#fff;}.cls-8{fill:#039;}</style></defs><g id="Layer_1-2" data-name="Layer_1"><g id="_1836042205984" data-name=" 1836042205984"><path class="cls-1" d="M210.67,165.16l.07-.07.07-.07c-5.11-10.15-7.56-21.46-3.17-32.55,7.78-19.29,34-29.87,52-37,11.52-4.61,24-9,34.85-14.83l3.17-1.73,3.24,1.73c10.8,5.83,23.25,10.22,34.77,14.83,18,7.13,44.21,17.71,52,37,4.47,11.09,1.95,22.47-3.16,32.62h.07l.07.07c8-8,18-13.89,29.95-13,20.74,1.37,38.88,23,51.26,37.94,7.92,9.51,15.91,20,24.91,28.51l2.6,2.52-.65,3.6c-2.23,12.1-2.52,25.35-3.31,37.66-1.3,19.29-3.24,47.52-19.23,60.91-9.14,7.63-20.66,8.78-32,7.05v.15c10.15,5.18,18.72,12.81,21.67,24.48,5,20.15-9.94,44.13-20.31,60.47-6.55,10.44-14.11,21.31-19.44,32.47l-1.51,3.32-3.67.43c-12.24,1.65-24.84,5.47-36.86,8.49-18.72,4.75-46.15,11.59-63.79.58-10.15-6.41-14.83-17-16.63-28.22h-.07c-1.8,11.23-6.48,21.81-16.64,28.15-17.63,11.08-45.07,4.24-63.78-.58-12-3-24.63-6.77-36.87-8.42l-3.67-.51-1.51-3.24c-5.33-11.16-12.89-22-19.44-32.47C145.29,399,130.32,375,135.36,354.87c2.95-11.59,11.59-19.29,21.74-24.48l-.07-.07v-.07c-11.23,1.73-22.75.58-31.9-7.06-16-13.31-17.92-41.54-19.22-60.83-.79-12.39-1.08-25.56-3.31-37.73l-.72-3.6,2.66-2.45c8.93-8.56,17-19.08,24.84-28.58,12.38-14.83,30.6-36.5,51.33-37.94C192.59,151.27,202.6,157.1,210.67,165.16Z" transform="translate(-101.59 -78.91)"/><path class="cls-2" d="M431.7,328.23l1-6c58.75,15.19,45.94-58.53,53.35-98.78-29.66-28.22-62.56-95.4-101.22-48.6l-4.32-4.25-5.4-2.8c32.61-51.19-41.47-61.78-77.47-81.29-36,19.51-110.09,30.1-77.47,81.29l-5.4,2.73-4.32,4.32c-38.66-46.87-71.64,20.38-101.23,48.53,7.35,40.24-5.47,114,53.35,98.85l.94,6,2.73,5.4c-56.44,22.32-2.73,74.45,14.91,111.31,40.53,5.4,106.7,40.39,110.44-20.23l6.05.94,6-.87c3.75,60.55,69.91,25.56,110.45,20.23C431.7,408.08,485.48,356,429,333.71Z" transform="translate(-101.59 -78.91)"/><path class="cls-3" d="M224.7,223.12c-3.52-4.61-11.59-10.22-11.66-11.45.72-7.49-8.64-13.82-14.9-10.51-1,.58-1.51.58-1.51.07,12.81-12.53,33-7.34,39.67,9.72C232.62,214.77,229,218.66,224.7,223.12ZM214.63,239c-4.4-3.82-13.47-7.7-13.76-8.93-.79-7.41-11.23-11.8-16.7-7.27-.86.79-1.37.86-1.44.43,10.08-14.9,30.82-13.89,40.82,1.44C220.75,229.24,217.94,233.77,214.63,239Zm-6.7,17.57c-5.11-2.81-14.69-4.83-15.26-5.91-2.31-7.12-13.4-9.36-17.86-3.74-.72.86-1.15,1.08-1.29.65,6.83-16.56,27.43-19.8,40.24-6.77C212,245.8,210.09,250.77,207.93,256.6Zm-3,18.57c-5.55-1.73-15.34-1.73-16.13-2.73-3.67-6.48-15-6.41-18.22-.08-.5,1-.93,1.3-1.15.94,3.39-17.64,22.82-24.91,38.09-14.76C206.63,263.8,205.84,269.05,204.91,275.17ZM205.7,294c-5.83-.65-15.41,1.36-16.42.5-4.89-5.62-15.91-3.24-17.85,3.6-.29,1.08-.58,1.44-.94,1.15-.21-17.93,17.42-29,34.34-22.1C205.12,282.52,205.41,287.84,205.7,294Zm4.53,18.21c-5.76.58-14.83,4.46-15.91,3.89-6-4.54-16.34,0-16.77,7.05-.08,1.16-.29,1.59-.72,1.3C173,307,188.06,292.6,206.06,296,207.35,301.09,208.72,306.28,210.23,312.25Zm8.14,17c-5.54,1.73-13.61,7.35-14.83,7-6.77-3.24-16,3.24-15,10.29.15,1.15,0,1.66-.5,1.44-7.2-16.41,4.61-33.48,23-33.84C213.33,319,215.63,323.7,218.37,329.24Zm11.37,15.05c-5.11,2.81-11.87,9.86-13.1,9.79-7.27-1.87-15,6.41-12.67,13.1.43,1.08.36,1.59-.14,1.52-10.37-14.62-2.24-33.77,15.62-37.73C222.69,335.15,225.93,339.32,229.74,344.29ZM260.27,366c-3.6,4.61-7,13.82-8.21,14.18-7.34,1.16-11.23,11.81-6.4,17.07.79.79.93,1.29.43,1.37-15.34-9.29-15.34-30.1-.51-40.83C250.26,360.35,254.87,362.94,260.27,366Zm17.93,5.83c-2.59,5.26-4.11,14.91-5.19,15.55-7,2.6-8.63,13.83-2.87,18,.93.65,1.15,1.08.72,1.3-16.92-6.05-21.1-26.42-8.72-39.89C267.18,368.34,272.29,369.92,278.2,371.79Zm18.72,2.09c-1.51,5.69-1,15.48-1.95,16.27-6.33,4-5.68,15.27.8,18.22,1,.43,1.36.86.93,1.15-17.78-2.59-26-21.67-16.56-37.37C285.47,372.73,290.73,373.23,296.92,373.88Zm18.72-1.66c-.29,5.84,2.16,15.34,1.37,16.35-5.4,5.11-2.52,16.05,4.46,17.64,1.08.21,1.51.57,1.15.86-17.93,1.15-29.81-15.91-23.69-33.19C304.19,373.3,309.45,372.8,315.64,372.22Zm18-5.47c.86,5.76,5.18,14.62,4.68,15.77-4.25,6.12.79,16.27,7.84,16.34,1.16.08,1.59.29,1.37.72-17.35,4.61-32.4-9.72-29.95-27.86C322.69,370.21,327.73,368.62,333.64,366.75Zm16.63-8.92c1.94,5.47,7.92,13.24,7.63,14.47C355,379.21,362,388.06,369,386.77c1.08-.22,1.58-.07,1.44.36-16.06,8.06-33.7-2.95-34.92-21.17C340.19,363.37,344.8,360.78,350.27,357.83ZM376.4,331c4,4.25,12.53,9,12.75,10.3,0,7.48,9.93,12.88,15.84,8.92.93-.64,1.44-.72,1.44-.21-11.52,13.75-32.12,10.58-40.39-5.76C369.27,340,372.59,335.87,376.4,331Zm8.5-16.77c4.75,3.31,14.11,6.26,14.54,7.48,1.51,7.35,12.31,10.66,17.35,5.55.79-.8,1.23-.94,1.37-.51-8.57,15.77-29.37,16.85-40.75,2.52C379.79,324.49,382.09,319.74,384.9,314.2ZM389.79,296c5.33,2.38,15.12,3.38,15.77,4.46,3,6.84,14.26,7.92,18.14,1.95.58-.94,1-1.23,1.23-.79-5.19,17.2-25.34,22.39-39.38,10.65C386.84,307.14,388.21,302,389.79,296ZM391,277.19c5.69,1.22,15.48.29,16.34,1.15,4.25,6.12,15.55,5,18.14-1.66.36-1.08.72-1.44,1.08-1-1.72,17.85-20.37,27-36.5,18.36C390.37,288.71,390.66,283.38,391,277.19Zm-2.67-18.65c5.84.07,15.27-2.81,16.28-2.16,5.4,5.19,16.19,1.73,17.42-5.25.21-1.16.5-1.59.86-1.23,1.95,17.78-14.54,30.53-32,25.27C390.08,269.92,389.29,264.66,388.35,258.54Zm-6.26-17.71c5.69-1.15,14.33-5.9,15.48-5.4,6.34,4,16.2-1.58,16-8.71,0-1.08.15-1.59.58-1.3,5.54,17.07-8.06,32.83-26.28,31.18C386.05,251.63,384.18,246.66,382.09,240.83ZM372.3,224.7c5.4-2.23,12.89-8.64,14.11-8.35,7,2.59,15.55-4.82,13.9-11.73-.22-1.16-.15-1.59.36-1.44,8.78,15.55-1.3,33.76-19.52,35.85C378.35,234.49,375.61,230,372.3,224.7ZM289.14,188c.94-5.76-.57-15.4.29-16.34,5.83-4.68,4-15.84-2.74-18q-1.62-.54-1.08-1.08c17.93.72,28.16,18.86,20.38,35.42Zm-18.43,3.68c-.29-5.84-3.74-15-3.09-16.13,4.82-5.69.86-16.27-6.27-17.06-1.08-.15-1.51-.44-1.22-.8,17.71-2.95,31.32,12.75,27.07,30.6C281.94,189.35,276.76,190.43,270.71,191.66Zm-17.35,7.27c-1.44-5.62-6.7-14-6.26-15.12,3.6-6.55-2.45-16.13-9.58-15.48-1.15.07-1.58-.07-1.37-.58,16.71-6.4,33.27,6.27,32.62,24.55C263.94,194.39,259.05,196.48,253.36,198.93Zm-15.55,10.65c-2.59-5.25-9.36-12.38-9.15-13.6,2.16-7.13-5.68-15.27-12.52-13.25-1.08.36-1.59.29-1.44-.22,15.12-9.65,33.76-.57,36.93,17.43C247.24,203,242.92,206.06,237.81,209.58Zm6.12,147.09c-4.47,3.75-9.65,12.1-10.87,12.24-7.49-.36-13.39,9.29-9.8,15.41.65.94.65,1.44.22,1.44-13.17-12.17-9-32.54,7.7-40.1C235.22,349.19,239.25,352.64,243.93,356.67Zm120.74-10.94c3,5,10.51,11.38,10.44,12.6-1.52,7.34,7.12,14.69,13.75,12,1-.43,1.51-.43,1.44.07-14,11.09-33.55,3.89-38.45-13.82C355.88,353.22,359.92,349.76,364.67,345.73Zm-5.11-134.85c4.82-3.31,10.79-11,12.09-11,7.42,1.08,14.26-7.84,11.3-14.32-.5-1-.5-1.52,0-1.44,11.74,13.46,5.48,33.33-11.88,39C367.4,219.3,363.8,215.42,359.56,210.88Zm-15.34-10.94c4-4.18,8.42-13,9.65-13.25,7.49-.43,12.45-10.59,8.21-16.27-.72-.94-.8-1.44-.29-1.44,14.25,10.87,12.09,31.53-3.82,40.6C353.65,206.56,349.33,203.46,344.22,199.94ZM327,192.23c3.17-4.89,5.62-14.4,6.77-14.9,7.27-1.87,10.08-12.82,4.75-17.57-.86-.79-1-1.22-.57-1.37,16.2,7.78,18.21,28.51,4.46,40.61C337.6,196.84,332.7,194.75,327,192.23Zm-18.36-4c2.09-5.47,2.6-15.26,3.6-16,6.77-3.31,7.28-14.55,1.16-18.15-1-.57-1.3-1-.87-1.22,17.42,4.39,23.62,24.26,12.53,38.88C319.89,190.58,314.7,189.5,308.65,188.2Z" transform="translate(-101.59 -78.91)"/><path class="cls-4" d="M298.21,191.08a89.82,89.82,0,1,1-89.85,89.78A89.79,89.79,0,0,1,298.21,191.08Z" transform="translate(-101.59 -78.91)"/><path class="cls-5" d="M298.36,218.15a62.68,62.68,0,1,1-62.64,62.64A62.69,62.69,0,0,1,298.36,218.15Z" transform="translate(-101.59 -78.91)"/><path class="cls-6" d="M217.07,253.21l1.59-5.4,10.44,3.1a8.72,8.72,0,0,1,2.73,1.3,7.24,7.24,0,0,1,2,2.23,8.08,8.08,0,0,1,.79,2.59,11.58,11.58,0,0,1-.58,4c-.21.86-.57,1.73-.93,2.74a8.19,8.19,0,0,1-1.51,2.3,7.25,7.25,0,0,1-2,1.44,5.63,5.63,0,0,1-2.38.5,9.79,9.79,0,0,1-3.09-.36l-10.37-3.09,1.59-5.33,10.65,3.1a2.91,2.91,0,0,0,2.45-.15,3.49,3.49,0,0,0,1.29-4.32,2.92,2.92,0,0,0-2-1.44ZM223,239l3-4.32,12.17.21L230,229.09l3.1-4.32,14.83,10.44-3,4.4-12.09-.22,8.13,5.76-3,4.32Zm16.2-20.23,4.24-3.67,11.88,13.82L251,232.55Zm8.64-7.78,5.18-2.81,9.94,9.44-2.81-13.4,5-2.8L268,220.6l-5.33,3Zm23.9-11.81,14.61-3.38.94,3.74-9.22,2.16.65,2.81,8.5-1.94.86,3.6-8.49,1.94.79,3.53,9.43-2.23.94,4-15,3.46ZM294,213l1.36-18.15,9.36.72a11.84,11.84,0,0,1,3.89.72,4.25,4.25,0,0,1,2.09,1.8,5.3,5.3,0,0,1,.65,3,5,5,0,0,1-.87,2.59,4.73,4.73,0,0,1-1.87,1.66,9.88,9.88,0,0,1-2,.57,4.85,4.85,0,0,1,1.36.72,5.6,5.6,0,0,1,.87,1.08,4.32,4.32,0,0,1,.65,1.15l2.37,5.48-6.33-.51-2.6-5.76a4.47,4.47,0,0,0-.93-1.44,2.15,2.15,0,0,0-1.37-.57h-.43l-.58,7.34Zm6.4-10.37,2.38.22c.29,0,.79-.08,1.51-.15a1.5,1.5,0,0,0,.94-.5,1.42,1.42,0,0,0,.43-1,1.61,1.61,0,0,0-.43-1.44,3.22,3.22,0,0,0-2.09-.65l-2.45-.14Zm14.33,6.26,5.11,1.44a5.55,5.55,0,0,0,0,2.16,3.15,3.15,0,0,0,2,1.8,2.67,2.67,0,0,0,1.94.15,1.66,1.66,0,0,0,1-1.08,1.38,1.38,0,0,0-.14-1.37,6.54,6.54,0,0,0-2.38-1.94A13.4,13.4,0,0,1,318,206.2a4.6,4.6,0,0,1-.28-3.89,4.73,4.73,0,0,1,1.58-2.23,5.51,5.51,0,0,1,2.95-1,11.18,11.18,0,0,1,4.46.79,9.15,9.15,0,0,1,4.61,3,5.73,5.73,0,0,1,.72,4.61l-5.11-1.44a3,3,0,0,0-.22-2,3.39,3.39,0,0,0-1.58-1.15,2.36,2.36,0,0,0-1.58-.07,1.26,1.26,0,0,0-.8.79,1.33,1.33,0,0,0,.15.86,4,4,0,0,0,1.58,1.23,25.46,25.46,0,0,1,4.39,3.24,5.66,5.66,0,0,1,1.59,2.73,6,6,0,0,1-.22,2.74,6,6,0,0,1-2,2.73,5.82,5.82,0,0,1-3.32,1.23,10.68,10.68,0,0,1-4.39-.72c-2.88-1-4.75-2.31-5.47-3.82A6.91,6.91,0,0,1,314.7,208.86Zm25.78-2.44,4.75,3-9.65,15.48-4.75-3Zm10.15,6.4,12.53,11.67-3.1,3.31-4.18-4-9.43,10-4.1-3.82,9.43-10-4.18-4Zm9,33.55-3.46-5.32-3,.86L350,237.09l19-4.25,3.38,5.18-11.52,15.7-3.24-5Zm2.66-3.16,4.39-5.26-6.55,1.94Zm4.25,9.86,1.8,5a4.9,4.9,0,0,0-1.73,1.22,2.9,2.9,0,0,0-.29,2.67,2.84,2.84,0,0,0,1,1.65,2.18,2.18,0,0,0,1.44.29,1.84,1.84,0,0,0,1.08-1,8,8,0,0,0,.22-3,11.92,11.92,0,0,1,.57-5.69,4.54,4.54,0,0,1,2.95-2.52,4.42,4.42,0,0,1,2.74,0,6.08,6.08,0,0,1,2.59,1.8,11.09,11.09,0,0,1,1.95,4.11,9.7,9.7,0,0,1,.28,5.47,5.57,5.57,0,0,1-3.38,3.24l-1.8-5a2.59,2.59,0,0,0,1.51-1.37,2.9,2.9,0,0,0,0-1.94,2.22,2.22,0,0,0-.79-1.3,1.65,1.65,0,0,0-1.15-.21,1.11,1.11,0,0,0-.65.64,5.31,5.31,0,0,0-.07,2,26.42,26.42,0,0,1-.07,5.47,5.69,5.69,0,0,1-1.3,2.81,4.76,4.76,0,0,1-2.38,1.44,5.42,5.42,0,0,1-3.38,0,6.45,6.45,0,0,1-2.88-1.94,12,12,0,0,1-2-4c-.87-3-.87-5.26-.08-6.7A6.88,6.88,0,0,1,366.54,253.07Z" transform="translate(-101.59 -78.91)"/><path class="cls-6" d="M222.76,305.7l2.3,4.39a3.82,3.82,0,0,0-1.44,1.37,2.81,2.81,0,0,0,.08,2.52,2.49,2.49,0,0,0,1.15,1.37,1.87,1.87,0,0,0,1.37.07,1.51,1.51,0,0,0,.86-1,7.37,7.37,0,0,0-.22-2.88,11.29,11.29,0,0,1-.14-5.33,4,4,0,0,1,2.38-2.66,4.51,4.51,0,0,1,2.59-.36,5.47,5.47,0,0,1,2.59,1.3,11.46,11.46,0,0,1,2.3,3.6,8.32,8.32,0,0,1,.94,5,5.37,5.37,0,0,1-2.66,3.46l-2.31-4.39a3.26,3.26,0,0,0,1.23-1.44,2.81,2.81,0,0,0-.29-1.8,1.78,1.78,0,0,0-.94-1.08,1,1,0,0,0-1-.07.92.92,0,0,0-.5.64,3.71,3.71,0,0,0,.14,1.88,20.34,20.34,0,0,1,.65,5.11,6.1,6.1,0,0,1-.79,2.73,5,5,0,0,1-2,1.66,6,6,0,0,1-3.16.43,5.71,5.71,0,0,1-3-1.44,10,10,0,0,1-2.3-3.45c-1.22-2.6-1.51-4.68-.93-6.12A6,6,0,0,1,222.76,305.7Zm7.7,26.21,12.89-11.16,5.69,6.62a13.33,13.33,0,0,1,2.16,3.1,4,4,0,0,1,.14,2.59,5.39,5.39,0,0,1-3.81,3.53,5,5,0,0,1-2.31-.15,7,7,0,0,1-1.72-1,14.59,14.59,0,0,1,.43,1.52c0,.21-.07.57-.15,1.15a6.68,6.68,0,0,1-.36,1.29l-2,5.12L237.52,340l2.09-5.54a3.19,3.19,0,0,0,.36-1.59,2.58,2.58,0,0,0-.51-1.22l-.36-.36-5.18,4.54Zm11.09-2.67L243,331c.15.14.51.43,1.08.86a1.29,1.29,0,0,0,1,.29,1.51,1.51,0,0,0,.94-.36,1.6,1.6,0,0,0,.64-1.22,3.08,3.08,0,0,0-1-1.8L244.14,327Zm18.15,7.2,4.39,2.88-9.15,14.33-4.39-2.88Zm9.57,6.48,4.82,1.37-.86,9.58,5.11-8.36,4.75,1.37-.07,9.87,4.32-8.64,4.83,1.36-8.28,15.27-5-1.37.07-11.16-5.76,9.5-5-1.44Zm29,5.55,5.25-.15.36,17-5.25.15Zm20.44-3.17,5-1.44,2.59,8.85a17.4,17.4,0,0,1,.72,4.4,5.14,5.14,0,0,1-1.29,3,6.64,6.64,0,0,1-3.6,2.16,10.24,10.24,0,0,1-4,.43,4.94,4.94,0,0,1-2.66-1.37,6.94,6.94,0,0,1-1.8-3l4.6-2a5.45,5.45,0,0,0,.65,1.51,1.74,1.74,0,0,0,.87.72,1.27,1.27,0,0,0,.86-.07,1.49,1.49,0,0,0,1.08-.94,4.31,4.31,0,0,0-.22-2.23ZM346.52,347l-5,3.24.79,2.81L337.81,356,334,338.17l4.82-3.1,14.54,10.8-4.6,3Zm-2.88-2.44-4.89-4.18,1.73,6.19Zm1.52-14,3.6-4.61,6.62.86L353,320.46l3.6-4.54,3.68,11.31,5.61,4.39-3.24,4.1L357,331.33Zm30.16-22.32-2.16,5.54,2.31,1.8-2,5L360,308.36l2.09-5.4,18.21.29-2,5.11Zm-3.81-.29-6.34-.5,5,4Z" transform="translate(-101.59 -78.91)"/><path class="cls-1" d="M146.73,490.44c78.19,34.49,223.62,34.49,301.81,0-2.66-9.36-5.4-18.72-8.06-28-88.34,33.19-197.34,33.19-285.68,0C152.06,471.72,149.4,481.08,146.73,490.44Zm296.41-30.16c-4.89-.07-9.86-.22-14.76-.29a472.63,472.63,0,0,0,53.5-21.6c-1.8,5.54-3.6,11-5.4,16.49,5.69,3.67,11.45,7.27,17.21,10.94-14.12,7.27-28.51,13.75-44,17.93C447.54,475.9,445.3,468.12,443.14,460.28Zm-10.94,2.88-7.34-.51.79,3Zm-280.07-2.88c4.9-.07,9.79-.22,14.76-.29a472.48,472.48,0,0,1-53.49-21.6c1.8,5.54,3.6,11,5.4,16.49l-17.21,10.94c14,7.27,28.44,13.75,43.92,17.93C147.74,475.9,149.9,468.12,152.13,460.28Zm11,2.88,7.27-.51-.72,3Z" transform="translate(-101.59 -78.91)"/><path class="cls-7" d="M160.48,475.25l3.82,1.37-4.54,12.1L156,487.35Zm8.36,2.95,3.81,1.3-3.09,9.22,6,1.94-1,3-9.72-3.24Zm13,4L187,483.6l-.07,8.14,4-7.13,5,1.37-3.24,12.46-3.17-.8,2.52-9.57-5,8.93-2.88-.8.07-10.15-2.45,9.51-3.16-.8Zm26.49,6.19,4,.86-1.58,7.49a6.4,6.4,0,0,1-.79,2,5.19,5.19,0,0,1-1.44,1.58,5.57,5.57,0,0,1-1.8.72,9.92,9.92,0,0,1-2.81-.14c-.58-.15-1.3-.36-2-.58a4.86,4.86,0,0,1-1.72-.86,5.49,5.49,0,0,1-1.16-1.37,3.78,3.78,0,0,1-.5-1.66,7.19,7.19,0,0,1,.07-2.16l1.51-7.56,4,.79-1.58,7.71a2.26,2.26,0,0,0,.22,1.73,2,2,0,0,0,1.44.93,2,2,0,0,0,1.72-.29,2.22,2.22,0,0,0,.87-1.44Zm20.45,14.25-4.47-.57-.93,2-4-.5,6.48-12.17,4.32.58,3.16,13.39-4.17-.5Zm-.43-2.88-.8-4.75-2,4.39ZM238.46,493l4,.5-1.08,9.65,6.19.65-.36,3.16L237,505.92Zm21,12.81-4.46-.29-.8,2.09-4.1-.29,5.76-12.52,4.32.28,4,13.18L260,508Zm-.65-2.81-1.08-4.75L256,502.83Zm7.56-7.48,12.1.57-.15,3.17-4.1-.14-.43,9.64-4-.14.43-9.72-4-.22Zm21.89.86h6.62a5.09,5.09,0,0,1,3.24,1.08,4.58,4.58,0,0,1-.21,6c-.72.79-1.95,1.08-3.6,1.08h-2.16l-.08,4.75h-4Zm3.89,5.54h1a2.52,2.52,0,0,0,1.66-.43,1.19,1.19,0,0,0,.43-1,1.31,1.31,0,0,0-.36-1,2.09,2.09,0,0,0-1.51-.44h-1.15Zm11.08-5.47,10.66-.29.07,2.74-6.62.22.07,2,6.12-.14.07,2.66-6.12.15.07,2.52,6.84-.15.08,2.88-10.88.29Zm15.27-.43,3.74-.22,5.18,6.92-.36-7.13,3.75-.15.65,12.89-3.75.15-5.18-6.84.36,7.12-3.74.15Zm24.12,6.7-.22-2.67,6.12-.5.5,5.47a13.31,13.31,0,0,1-3,1.87,9.27,9.27,0,0,1-3.17.72,7.53,7.53,0,0,1-3.74-.43,5.08,5.08,0,0,1-2.45-2.16,7.25,7.25,0,0,1-1.15-3.46,8.12,8.12,0,0,1,.57-3.74,5.77,5.77,0,0,1,2.31-2.59,10.06,10.06,0,0,1,3.45-.94,10.63,10.63,0,0,1,3.24.15,4.33,4.33,0,0,1,1.88,1,5.2,5.2,0,0,1,1.22,2l-3.74,1a2,2,0,0,0-.94-1.08,2.25,2.25,0,0,0-1.44-.22,2.47,2.47,0,0,0-2,1.08,4.12,4.12,0,0,0-.5,2.95,4.22,4.22,0,0,0,1,2.88,2.76,2.76,0,0,0,2.3.72,8,8,0,0,0,1.23-.28c.36-.22.79-.44,1.29-.8l-.07-1.22Zm18.93.57-4.46.58-.36,2.23-4,.5,3.16-13.39,4.32-.57,6.48,12.16-4.17.51Zm-1.15-2.66-2-4.39-.79,4.75Zm8-9.15,7.34-1.08a4.09,4.09,0,0,1,3,.44,3.05,3.05,0,0,1,1.29,2.16,2.8,2.8,0,0,1-.36,2,3.26,3.26,0,0,1-1.29,1.08,3.71,3.71,0,0,1,2.23.79,3.22,3.22,0,0,1,.94,1.95,3.29,3.29,0,0,1-.15,1.87,3.33,3.33,0,0,1-1.08,1.44,5.51,5.51,0,0,1-1.44.65l-1.73.43-6.84,1.08Zm4.75,4.4,1.73-.22a2.78,2.78,0,0,0,1.22-.5,1.19,1.19,0,0,0,.22-1,1,1,0,0,0-.5-.79,1.8,1.8,0,0,0-1.3-.15l-1.73.29Zm.79,5,2-.29a3.56,3.56,0,0,0,1.37-.58,1.35,1.35,0,0,0,.21-1.08,1.07,1.07,0,0,0-.5-.86,2.45,2.45,0,0,0-1.51-.07l-2,.28Zm10.16-12,5.83-1.15a7.76,7.76,0,0,1,2.81-.14,4.94,4.94,0,0,1,2.08,1,5.59,5.59,0,0,1,1.37,1.8,8.27,8.27,0,0,1,.79,2.37,8.92,8.92,0,0,1,.22,3.24,5.2,5.2,0,0,1-.86,2.16,4.65,4.65,0,0,1-1.59,1.37,8.23,8.23,0,0,1-2.23.79l-5.83,1.23Zm4.46,2.09L390,498l.94-.21a3.29,3.29,0,0,0,1.72-.65,1.59,1.59,0,0,0,.58-1.08,5.14,5.14,0,0,0-.14-2.23,4.39,4.39,0,0,0-1.23-2.67,2.88,2.88,0,0,0-2.3-.28ZM400,485.62l3.89-.86,2.95,12.52-3.89.94Zm19,6.19-4.31,1.3v2.23l-4,1.15,1-13.75,4.25-1.22,8.28,11-4,1.15Zm-1.58-2.45-2.66-4-.07,4.83Zm6-9.93,3.52-1.3,7,5-2.45-6.62,3.53-1.37,4.46,12.09-3.53,1.37-7-5,2.45,6.63-3.53,1.29Z" transform="translate(-101.59 -78.91)"/><path class="cls-8" d="M298.36,222a58.79,58.79,0,1,1-58.82,58.75A58.77,58.77,0,0,1,298.36,222Z" transform="translate(-101.59 -78.91)"/><path class="cls-9" d="M290.37,238.45a14.9,14.9,0,0,0-.44-2.44c-.43-1.95-.79-1.73-1.44-1.88-1.22,1.73,1.37,5.69-.14,8.57-1.22-.29-.94-1.22-1.37-2.3l-2.59-5c-.58-1.23-.22-2-1.22-2.38-.94,1.87.5,2.23.93,5.76.36,2.45,1.3,3.39,1.15,5.83-3.09.22-1.94-2.44-3.81-2.95-1.08,1.44.43,3.1.43,5-1.73-.07-1.87-.58-2.74-1.73-1.72-2.45-1.36-2.23-2.66-2.52l.07,2.31c.58.36,0-.29.65.72,1.15,1.87.86,3.45-.43,2.66l-2.16-2.3c-2.52-3.46-2.88-3.53-5.62-6.84-.64-.87-1.15-.94-1.58-1.44-.65-.8-.07-.87-1.08-1.66-.79,1-.22,1.3.43,2l5.54,8.78a7.53,7.53,0,0,1,1.08,1.73c.36.86.22,1.08.94,1.65-2.74.72-4.32-3.67-7.34-4.24.14,2.3,2.3,3.67,3.53,5.68s.64,1.59.5,1.66c-1.3,1.22-9.22-7.06-11.38-7.13.15,1.23-.21,0,.65,1.3l.29.43.94,1.08c1.08.5,1.22,1,2.08,1.8l2.81,2.74c.94.79,1.15.5,1.66,2.08s0,.87-.65.65c-4.18-1.58-4.54-3.31-7.2-3.6.43,3.46,6.26,4.54,6,7.63-2.16,0-2.16-.64-4-.86.36,3.46,2,.86,1.94,4.18-2.74.14-5.47-1.88-6.77-1.23l1.23,1.23a2.34,2.34,0,0,0,1.22.86c2.09.94,1.3,1.44,3,2.59-3,1.87-11.16-3.81-13.53-1.87.64,1.22.57.5,2.66,1.3,1.3.5,1.8.72,3.17,1.15,1.15.36,1.58.93,2.66,1.29,1.37.58,2.31.36,2.31,1.87-2.67,1.37-5.62-.64-7.35.58.58,1.08,1.44.5,3.6,1.58a9.18,9.18,0,0,0,1.73.72c1,.36,1.37.29,1.8,1.08-.86,1.16-2.81,1-4.54.94l-2.8-.22a8.94,8.94,0,0,0-1.37,0c-.94.22-.65,0-1,.65.5.65.22.51,2.59.72,3.82.43,4.68.15,6.7,2.31-2,1.51-6.77.86-7.56,1.22-1,.43-.36-.29-.58.86,2.52,1.16,6.48-.07,8.79,1.16a3.45,3.45,0,0,1-2.81,2.37c-1.44.51-.87.07-1.15,1.08l3.16.15c1,.07,2.16.5.94,1.72a7.06,7.06,0,0,1-1.87.72c-1.51.51-2.74.94-3.1,1.73.07.07.15.07.22.15.21.5,2.09.21,2.59.07,4.82-.94,2.38,2.88-1.08,2.59,0,.07-.07.07-.14.14a.16.16,0,0,1-.15.15c-1.08.79-6.12,2.37-7.34,3.24,1.44,1.51,4.39.07,6.12-.51,1.94-.57,3.89-1,5.61-1.44l.51.58c-1,1.58,1.15.07-2.45,2.45-3.1,2-2.95.93-3.38,2.45,1.15.79,2.95,0,4-.65a3.93,3.93,0,0,1,3.81-.29c-.07,1.08-3,2.74-4.1,3.38-2,1.3-1.3,1.3-3.46,2.52-.86.44-.72.22-1,1.23,2.23.07,1.72-.15,3-.94s1.58-.5,2.81-1.37a12.66,12.66,0,0,1,2.66-1.29c1.08-.65,1.37-1.3,2.38-.07-.58,1.36-7.92,6.84-8.5,8,1.59.07.87.07,3-1.23.93-.57,1.87-1.08,2.8-1.65,1.16-.65,1.59-1.08,2.74-1.8.86-.58,1.73-1.37,2.81-.51-.07,1.52-1.8,2-2,4,2.67.07,1.66-1.08,3.31-1.37,1.08-.22.8-.15,1.23.14,1.15,1.23-2.59,3.31-2.74,5.91,2,0,1.8-1.52,4-2.74,1.3-.72,2.23-.58,1.08,1.44-1.37,2.52-7.56,11.3-7.7,13.1,1.08-.29,3.17-3.17,4-4.17,1.37-1.52,2.38-3.1,3.74-4.68l2.16-2.38a.89.89,0,0,1,1-.43c1.51.22.22,1.37-.14,2.23s-.07.94-.58,1.66c-.86,1.51-1.15.93-1.08,3.38a3.59,3.59,0,0,0,1.87-.65c0-.79-.07-.36.29-.86a14.44,14.44,0,0,1,2.52-3.67c1.08-.79,1.23-.15,1.37,0,.86,1.58-3.6,8.64-3.1,11.08,1-.43.94-1.58,1.59-2.52l2.95-5.47c.58-1.15,1.15-1.29,2.38-1.58-.08,1.29-.58,3.53-.87,5-.36,1.94-1.15,2.88-1.08,5.11l3.82-7.63c.43-1.08.65-2.45,1.87-1.8,1.3,1.22-.43,2.81.86,4.17,1.3-1.22.8-2.59,3.1-4,1.51,1.8.5,3.39.79,5l.36.94c.94-.22.65-.58,1.15-1.23a4,4,0,0,1,.87-3.31c2.52.58,1.8,3,1.73,5.54l.43,5.26c.36,2.09-.07.94.86,1.37,1-1.73-.29-8.71,1.44-12,1.51.72,2.52,3.81,2.38,6.12.43.5.07.86.93,1.36,1.3-1.87-.5-6.26,1.16-7.7,1.58.58,2.8,7.27,2.8,7.27.58,1.08-.36.43,1.16.72.14-.36.5.15.14-2.23-.36-3.31-1.08-5.11,0-6.48,1.73.5,1.15,1.94,2.09,3.46.5.93.72.64,1,2,.28,1.66-.08,1.8,1.22,2.09,1.66-2.66-2.95-7.63-.72-10.15l2.3,2.45c.8.93-.07.64,1.37.93.07-2.88-1.58-3.88-.65-4.82.87-.65,2.45,1.15,2.74,1.65s.58.8,1,1.44c.86,1.37.21,1.16,1.72,1.44-.07-2.59-2.15-4.39-1.22-5.68,1-.79,1.08-.15,1.73.65s.93.93,1.44,1.58a10.6,10.6,0,0,0,1.29,1.8l2.67,3.38c0,.07.07.15.07.22.79,1.51.36.29,1.51,1.51.87.94.15.72,1.51,1.8,1.16.86.65.79,1.52,1.3-.15-1.66-3-5.26-4-6.92-1.66-2.8-3.89-5.25-3.68-6.47s.87-1.3,2-.29l2.59,2.52c.79.79.65.86,2.09.93-.43-2.73-5.11-5.68-4-7.92.93.29,6.33,4.47,7.12,5.12a6.68,6.68,0,0,0,2.74,1.65c-.14-1.29-2.66-4-3.74-4.89-.87-.65-3.46-2.74-3.53-4s.29-1.08,2.45.36l6.33,3.67c.58.36.58.57,1.37.65-.07-.87-.43-.94-1.15-1.66-1.44-1.37-7.2-5.62-7.27-7.06,2.37-1.36,3.67,1.44,5.32.72-.64-2.16-3.52-2.23-3.6-4,2-1.44,3.17.22,4.61.08s.43.07,1-.36c-.36-1.66-.86-.94-2-1.8-.36-.29-2.8-3.46,1.73-1.73a31.67,31.67,0,0,0,3.24.79c1.95.36,3,1.08,4.47,1.22,1.8.22,1.72-.36,1.87-.43-.65-1.65-2.45-.93-3.75-2.3a8.25,8.25,0,0,1-4-1c-1.65-.72-2.09-1.15-2.45-2.74l6.34.29c1.94-.36-1.51.58.5-.14l.51-.29c-.51-.79-.65-.65-1.8-.86a9.49,9.49,0,0,1-2-.51c-.93-.36-2.81-1.08-3.31-2,1.15-1.37,4.9-.8,7-.65h1.44c.87-.22.58,0,1-.72l-1.51-.87c-.07,0-.14-.07-.22-.07l-.28.15c-2.16.07-6-.08-6.56-1.73.87-2.45,7.13-.51,8.93-2.23-2.52-1.73-8.06.57-10-1.73.51-2.52,2.74-1.3,3.89-2.81-.57-.5-.57-.36-.93-.43-1.37-.22-3.39.36-3.89-1.23,1-1.65,4.25-.57,5.11-3.16-1.58-.08-3.53.28-4.82-.22-.72-1.66,1.22-2.23,2.66-2.16l6.41-2.81c2.16-.79,1.44-.21,1.8-1.22-1.66-1.15-4,.22-6.12.79a21.3,21.3,0,0,1-5.76,1.08c.21-1.58,1.22-2,2.66-2.73A19.51,19.51,0,0,0,339.9,263c1.22-.65,1.22-.08,1.58-1.44-1.15-.65-2.88.14-4,.72a4.6,4.6,0,0,1-3.81.5c-.22-1.51,3.45-3.46,4.75-4l.36-.14,1.44-1.52c1-.93.86-.21,1.15-1.58a16.14,16.14,0,0,0-5,2.16c-1.15.79-1.37.43-2.3,1s-.94,1.44-2.31.57c-.65-.79,3.24-3.88,4.61-5.25,1.08-1.08,1.3-.22,1.66-1.87-3,.07-7.06,4.68-9.44,4.39l.29-3.17-2.81.36-.57-.65c.07-1,.5-1,1-1.65.79-1.08.28-.94,1.29-1.66l-.07-.07A9,9,0,0,0,328,248c-2.52.5-3.1,2.73-5.18,2.59-.15-1.66.21-1.22.86-2.3l6.19-9.58c.79-1.15,2-2.66,1.95-3.89-.94.15-.94.58-1.23.94l-3,3.74a11.15,11.15,0,0,1-1.44,1.66c-1.37,1.29-4.11,5.9-5.91,6.33-1.51-1.44,0-1.8.72-3.67l1.37-3.17c.36-1.58.07-.72-.14-1.08-1.66.36-3.89,4.83-4.39,5.33-.07,0-1.37.94-1.66.58-.86-1,1.3-4.83,1.73-6.05a13.09,13.09,0,0,0,.5-1.66c.44-1.22,1.66-3.09,1-4.68-.93.44-4.17,8.07-4.68,9s-1.44,1.08-1.94,2.24c-.94-1.44-.29-3.46.43-5.19.14-2.23.29-1.87-.29-2.66-2.59,1-1.22,6.91-5,6.91-.29-1.08.07-2.74-.29-3.67-2.73.29-.36,1.94-2.8,3.31-2-1.73-.08-4-1.44-6-.65.51-.65,1.88-1.23,2.81a6.43,6.43,0,0,1-1.58,2c-2.16-1.08-.36-9.94-1.66-12.17-1,.5-.36-.72-.79,1.08a10.19,10.19,0,0,0-.14,1.58c-.29,2.74-.22,7.49-.87,8.64-1.29-.14-2-1.08-2.23-2.66-.14-.72-.14-1.44-.22-2.23-.21-1.59,0-1.37-1.08-1.59a.29.29,0,0,0-.07.22l-.21.79a4.65,4.65,0,0,0-.08,1.08c.08,2.52.65,4.32-.79,5.26A6,6,0,0,1,290.37,238.45Z" transform="translate(-101.59 -78.91)"/></g></g></svg>